<mxfile host="Electron" modified="2024-04-27T06:00:56.485Z" agent="Mozilla/5.0 (Windows NT 10.0; Win64; x64) AppleWebKit/537.36 (KHTML, like Gecko) draw.io/24.1.0 Chrome/120.0.6099.109 Electron/28.1.0 Safari/537.36" etag="3InB_rsocYRYvd8phS_f" version="24.1.0" type="device">
  <diagram name="Page-1" id="g6dS3q9Hj-z7d2nMNrN1">
    <mxGraphModel dx="1630" dy="496" grid="1" gridSize="10" guides="1" tooltips="1" connect="1" arrows="1" fold="1" page="1" pageScale="1" pageWidth="850" pageHeight="1100" math="0" shadow="0">
      <root>
        <mxCell id="0" />
        <mxCell id="1" parent="0" />
        <mxCell id="VQB_SgRrG4Z1jtRtXzJK-1" value="&lt;div&gt;Dish&lt;/div&gt;" style="whiteSpace=wrap;html=1;align=center;" parent="1" vertex="1">
          <mxGeometry x="-270" y="320" width="100" height="40" as="geometry" />
        </mxCell>
        <mxCell id="VQB_SgRrG4Z1jtRtXzJK-4" value="Meal" style="whiteSpace=wrap;html=1;align=center;" parent="1" vertex="1">
          <mxGeometry x="-270" y="170" width="100" height="40" as="geometry" />
        </mxCell>
        <mxCell id="VQB_SgRrG4Z1jtRtXzJK-12" value="&lt;div&gt;Ingredient&lt;/div&gt;" style="whiteSpace=wrap;html=1;align=center;" parent="1" vertex="1">
          <mxGeometry x="-270" y="490" width="100" height="40" as="geometry" />
        </mxCell>
        <mxCell id="VQB_SgRrG4Z1jtRtXzJK-19" value="&lt;div&gt;Caloric content&lt;/div&gt;" style="ellipse;whiteSpace=wrap;html=1;align=center;" parent="1" vertex="1">
          <mxGeometry x="-540" y="390" width="100" height="40" as="geometry" />
        </mxCell>
        <mxCell id="VQB_SgRrG4Z1jtRtXzJK-20" value="" style="endArrow=none;html=1;rounded=0;exitX=1;exitY=0.5;exitDx=0;exitDy=0;entryX=0;entryY=0.5;entryDx=0;entryDy=0;edgeStyle=orthogonalEdgeStyle;" parent="1" source="VQB_SgRrG4Z1jtRtXzJK-19" target="VQB_SgRrG4Z1jtRtXzJK-12" edge="1">
          <mxGeometry relative="1" as="geometry">
            <mxPoint x="-440" y="360" as="sourcePoint" />
            <mxPoint x="380.4" y="180" as="targetPoint" />
            <Array as="points">
              <mxPoint x="-380" y="410" />
              <mxPoint x="-380" y="510" />
            </Array>
          </mxGeometry>
        </mxCell>
        <mxCell id="VQB_SgRrG4Z1jtRtXzJK-21" value="M" style="resizable=0;html=1;whiteSpace=wrap;align=left;verticalAlign=bottom;" parent="VQB_SgRrG4Z1jtRtXzJK-20" connectable="0" vertex="1">
          <mxGeometry x="-1" relative="1" as="geometry" />
        </mxCell>
        <mxCell id="VQB_SgRrG4Z1jtRtXzJK-22" value="N" style="resizable=0;html=1;whiteSpace=wrap;align=right;verticalAlign=bottom;" parent="VQB_SgRrG4Z1jtRtXzJK-20" connectable="0" vertex="1">
          <mxGeometry x="1" relative="1" as="geometry" />
        </mxCell>
        <mxCell id="VQB_SgRrG4Z1jtRtXzJK-23" value="" style="endArrow=none;html=1;rounded=0;entryX=0;entryY=0.5;entryDx=0;entryDy=0;exitX=1;exitY=0.5;exitDx=0;exitDy=0;edgeStyle=orthogonalEdgeStyle;" parent="1" source="VQB_SgRrG4Z1jtRtXzJK-19" target="VQB_SgRrG4Z1jtRtXzJK-1" edge="1">
          <mxGeometry relative="1" as="geometry">
            <mxPoint x="-440" y="360" as="sourcePoint" />
            <mxPoint x="370.4" y="70" as="targetPoint" />
          </mxGeometry>
        </mxCell>
        <mxCell id="VQB_SgRrG4Z1jtRtXzJK-24" value="M" style="resizable=0;html=1;whiteSpace=wrap;align=left;verticalAlign=bottom;" parent="VQB_SgRrG4Z1jtRtXzJK-23" connectable="0" vertex="1">
          <mxGeometry x="-1" relative="1" as="geometry" />
        </mxCell>
        <mxCell id="VQB_SgRrG4Z1jtRtXzJK-25" value="N" style="resizable=0;html=1;whiteSpace=wrap;align=right;verticalAlign=bottom;" parent="VQB_SgRrG4Z1jtRtXzJK-23" connectable="0" vertex="1">
          <mxGeometry x="1" relative="1" as="geometry" />
        </mxCell>
        <mxCell id="VQB_SgRrG4Z1jtRtXzJK-26" value="" style="endArrow=none;html=1;rounded=0;entryX=0;entryY=0.5;entryDx=0;entryDy=0;exitX=0.5;exitY=0;exitDx=0;exitDy=0;edgeStyle=orthogonalEdgeStyle;" parent="1" source="VQB_SgRrG4Z1jtRtXzJK-19" target="VQB_SgRrG4Z1jtRtXzJK-4" edge="1">
          <mxGeometry relative="1" as="geometry">
            <mxPoint x="120" y="320" as="sourcePoint" />
            <mxPoint x="-49.599999999999994" y="240" as="targetPoint" />
            <Array as="points">
              <mxPoint x="-490" y="200" />
              <mxPoint x="-380" y="200" />
            </Array>
          </mxGeometry>
        </mxCell>
        <mxCell id="VQB_SgRrG4Z1jtRtXzJK-27" value="M" style="resizable=0;html=1;whiteSpace=wrap;align=left;verticalAlign=bottom;" parent="VQB_SgRrG4Z1jtRtXzJK-26" connectable="0" vertex="1">
          <mxGeometry x="-1" relative="1" as="geometry">
            <mxPoint y="-10" as="offset" />
          </mxGeometry>
        </mxCell>
        <mxCell id="VQB_SgRrG4Z1jtRtXzJK-28" value="N" style="resizable=0;html=1;whiteSpace=wrap;align=right;verticalAlign=bottom;" parent="VQB_SgRrG4Z1jtRtXzJK-26" connectable="0" vertex="1">
          <mxGeometry x="1" relative="1" as="geometry" />
        </mxCell>
        <mxCell id="VQB_SgRrG4Z1jtRtXzJK-33" value="Calorie density" style="ellipse;whiteSpace=wrap;html=1;align=center;" parent="1" vertex="1">
          <mxGeometry x="-200" y="590" width="100" height="40" as="geometry" />
        </mxCell>
        <mxCell id="VQB_SgRrG4Z1jtRtXzJK-34" value="Weight" style="ellipse;whiteSpace=wrap;html=1;align=center;" parent="1" vertex="1">
          <mxGeometry x="-340" y="590" width="100" height="40" as="geometry" />
        </mxCell>
        <mxCell id="VQB_SgRrG4Z1jtRtXzJK-35" style="edgeStyle=orthogonalEdgeStyle;rounded=0;orthogonalLoop=1;jettySize=auto;html=1;exitX=0.5;exitY=1;exitDx=0;exitDy=0;" parent="1" source="VQB_SgRrG4Z1jtRtXzJK-12" target="VQB_SgRrG4Z1jtRtXzJK-12" edge="1">
          <mxGeometry relative="1" as="geometry" />
        </mxCell>
        <mxCell id="VQB_SgRrG4Z1jtRtXzJK-36" value="Person" style="whiteSpace=wrap;html=1;align=center;" parent="1" vertex="1">
          <mxGeometry x="-740" y="120" width="100" height="40" as="geometry" />
        </mxCell>
        <mxCell id="VQB_SgRrG4Z1jtRtXzJK-41" value="Consumes" style="shape=rhombus;perimeter=rhombusPerimeter;whiteSpace=wrap;html=1;align=center;" parent="1" vertex="1">
          <mxGeometry x="-560" y="110" width="120" height="60" as="geometry" />
        </mxCell>
        <mxCell id="VQB_SgRrG4Z1jtRtXzJK-46" value="" style="endArrow=none;html=1;rounded=0;exitX=0.25;exitY=0;exitDx=0;exitDy=0;edgeStyle=orthogonalEdgeStyle;entryX=1;entryY=0.5;entryDx=0;entryDy=0;" parent="1" source="VQB_SgRrG4Z1jtRtXzJK-4" target="VQB_SgRrG4Z1jtRtXzJK-41" edge="1">
          <mxGeometry relative="1" as="geometry">
            <mxPoint x="380" y="170" as="sourcePoint" />
            <mxPoint x="-190" y="120" as="targetPoint" />
            <Array as="points">
              <mxPoint x="-245" y="140" />
            </Array>
          </mxGeometry>
        </mxCell>
        <mxCell id="VQB_SgRrG4Z1jtRtXzJK-47" value="N" style="resizable=0;html=1;whiteSpace=wrap;align=right;verticalAlign=bottom;" parent="VQB_SgRrG4Z1jtRtXzJK-46" connectable="0" vertex="1">
          <mxGeometry x="1" relative="1" as="geometry" />
        </mxCell>
        <mxCell id="VQB_SgRrG4Z1jtRtXzJK-49" value="" style="endArrow=none;html=1;rounded=0;exitX=1;exitY=0.5;exitDx=0;exitDy=0;entryX=0;entryY=0.5;entryDx=0;entryDy=0;" parent="1" source="VQB_SgRrG4Z1jtRtXzJK-36" target="VQB_SgRrG4Z1jtRtXzJK-41" edge="1">
          <mxGeometry relative="1" as="geometry">
            <mxPoint x="-260" y="-100" as="sourcePoint" />
            <mxPoint x="-100" y="-100" as="targetPoint" />
          </mxGeometry>
        </mxCell>
        <mxCell id="VQB_SgRrG4Z1jtRtXzJK-50" value="&lt;div&gt;Is made of&lt;/div&gt;" style="shape=rhombus;perimeter=rhombusPerimeter;whiteSpace=wrap;html=1;align=center;" parent="1" vertex="1">
          <mxGeometry x="-280" y="250" width="120" height="60" as="geometry" />
        </mxCell>
        <mxCell id="VQB_SgRrG4Z1jtRtXzJK-51" value="Is made up of" style="shape=rhombus;perimeter=rhombusPerimeter;whiteSpace=wrap;html=1;align=center;" parent="1" vertex="1">
          <mxGeometry x="-280" y="410" width="120" height="60" as="geometry" />
        </mxCell>
        <mxCell id="VQB_SgRrG4Z1jtRtXzJK-53" value="" style="endArrow=none;html=1;rounded=0;exitX=0.5;exitY=1;exitDx=0;exitDy=0;entryX=0.5;entryY=0;entryDx=0;entryDy=0;" parent="1" source="VQB_SgRrG4Z1jtRtXzJK-4" target="VQB_SgRrG4Z1jtRtXzJK-50" edge="1">
          <mxGeometry relative="1" as="geometry">
            <mxPoint x="100" y="220" as="sourcePoint" />
            <mxPoint x="260" y="220" as="targetPoint" />
          </mxGeometry>
        </mxCell>
        <mxCell id="VQB_SgRrG4Z1jtRtXzJK-54" value="" style="endArrow=none;html=1;rounded=0;exitX=0.5;exitY=1;exitDx=0;exitDy=0;entryX=0.5;entryY=0;entryDx=0;entryDy=0;" parent="1" source="VQB_SgRrG4Z1jtRtXzJK-1" target="VQB_SgRrG4Z1jtRtXzJK-51" edge="1">
          <mxGeometry relative="1" as="geometry">
            <mxPoint x="100" y="170" as="sourcePoint" />
            <mxPoint x="260" y="170" as="targetPoint" />
          </mxGeometry>
        </mxCell>
        <mxCell id="VQB_SgRrG4Z1jtRtXzJK-55" value="" style="endArrow=none;html=1;rounded=0;exitX=0.5;exitY=0;exitDx=0;exitDy=0;entryX=0.5;entryY=1;entryDx=0;entryDy=0;" parent="1" source="VQB_SgRrG4Z1jtRtXzJK-12" target="VQB_SgRrG4Z1jtRtXzJK-51" edge="1">
          <mxGeometry relative="1" as="geometry">
            <mxPoint x="100" y="170" as="sourcePoint" />
            <mxPoint x="350" y="-30" as="targetPoint" />
          </mxGeometry>
        </mxCell>
        <mxCell id="VQB_SgRrG4Z1jtRtXzJK-56" value="N" style="resizable=0;html=1;whiteSpace=wrap;align=right;verticalAlign=bottom;" parent="VQB_SgRrG4Z1jtRtXzJK-55" connectable="0" vertex="1">
          <mxGeometry x="1" relative="1" as="geometry" />
        </mxCell>
        <mxCell id="VQB_SgRrG4Z1jtRtXzJK-57" value="" style="endArrow=none;html=1;rounded=0;exitX=0.5;exitY=0;exitDx=0;exitDy=0;entryX=0.5;entryY=1;entryDx=0;entryDy=0;" parent="1" source="VQB_SgRrG4Z1jtRtXzJK-1" target="VQB_SgRrG4Z1jtRtXzJK-50" edge="1">
          <mxGeometry relative="1" as="geometry">
            <mxPoint x="-20" y="140" as="sourcePoint" />
            <mxPoint x="50" as="targetPoint" />
          </mxGeometry>
        </mxCell>
        <mxCell id="VQB_SgRrG4Z1jtRtXzJK-58" value="N" style="resizable=0;html=1;whiteSpace=wrap;align=right;verticalAlign=bottom;" parent="VQB_SgRrG4Z1jtRtXzJK-57" connectable="0" vertex="1">
          <mxGeometry x="1" relative="1" as="geometry" />
        </mxCell>
        <mxCell id="VQB_SgRrG4Z1jtRtXzJK-72" style="edgeStyle=orthogonalEdgeStyle;rounded=0;orthogonalLoop=1;jettySize=auto;html=1;exitX=0;exitY=0.5;exitDx=0;exitDy=0;entryX=0.5;entryY=1;entryDx=0;entryDy=0;" parent="1" source="VQB_SgRrG4Z1jtRtXzJK-65" target="VQB_SgRrG4Z1jtRtXzJK-19" edge="1">
          <mxGeometry relative="1" as="geometry">
            <mxPoint x="-490" y="430" as="targetPoint" />
          </mxGeometry>
        </mxCell>
        <mxCell id="VQB_SgRrG4Z1jtRtXzJK-65" value="Determine" style="shape=rhombus;perimeter=rhombusPerimeter;whiteSpace=wrap;html=1;align=center;" parent="1" vertex="1">
          <mxGeometry x="-280" y="650" width="120" height="60" as="geometry" />
        </mxCell>
        <mxCell id="VQB_SgRrG4Z1jtRtXzJK-66" value="" style="endArrow=none;html=1;rounded=0;exitX=0.5;exitY=1;exitDx=0;exitDy=0;entryX=0.5;entryY=0;entryDx=0;entryDy=0;" parent="1" source="VQB_SgRrG4Z1jtRtXzJK-12" target="VQB_SgRrG4Z1jtRtXzJK-34" edge="1">
          <mxGeometry relative="1" as="geometry">
            <mxPoint x="-110" y="595" as="sourcePoint" />
            <mxPoint x="-80" y="590" as="targetPoint" />
          </mxGeometry>
        </mxCell>
        <mxCell id="VQB_SgRrG4Z1jtRtXzJK-67" value="1" style="resizable=0;html=1;whiteSpace=wrap;align=right;verticalAlign=bottom;" parent="VQB_SgRrG4Z1jtRtXzJK-66" connectable="0" vertex="1">
          <mxGeometry x="1" relative="1" as="geometry" />
        </mxCell>
        <mxCell id="VQB_SgRrG4Z1jtRtXzJK-68" value="" style="endArrow=none;html=1;rounded=0;entryX=0.5;entryY=0;entryDx=0;entryDy=0;exitX=0.5;exitY=1;exitDx=0;exitDy=0;" parent="1" source="xIRENKoxoDqLBD3Ap8V8-8" edge="1">
          <mxGeometry relative="1" as="geometry">
            <mxPoint x="-50" y="595" as="sourcePoint" />
            <mxPoint x="-150" y="590" as="targetPoint" />
          </mxGeometry>
        </mxCell>
        <mxCell id="VQB_SgRrG4Z1jtRtXzJK-69" value="1" style="resizable=0;html=1;whiteSpace=wrap;align=right;verticalAlign=bottom;" parent="VQB_SgRrG4Z1jtRtXzJK-68" connectable="0" vertex="1">
          <mxGeometry x="1" relative="1" as="geometry" />
        </mxCell>
        <mxCell id="VQB_SgRrG4Z1jtRtXzJK-70" value="" style="endArrow=none;html=1;rounded=0;exitX=0.5;exitY=1;exitDx=0;exitDy=0;entryX=0.5;entryY=0;entryDx=0;entryDy=0;" parent="1" source="VQB_SgRrG4Z1jtRtXzJK-34" target="VQB_SgRrG4Z1jtRtXzJK-65" edge="1">
          <mxGeometry relative="1" as="geometry">
            <mxPoint x="-280" y="740" as="sourcePoint" />
            <mxPoint x="-120" y="740" as="targetPoint" />
          </mxGeometry>
        </mxCell>
        <mxCell id="VQB_SgRrG4Z1jtRtXzJK-71" value="" style="endArrow=none;html=1;rounded=0;entryX=0.5;entryY=0;entryDx=0;entryDy=0;exitX=0.5;exitY=1;exitDx=0;exitDy=0;" parent="1" target="VQB_SgRrG4Z1jtRtXzJK-65" edge="1">
          <mxGeometry relative="1" as="geometry">
            <mxPoint x="-150" y="630" as="sourcePoint" />
            <mxPoint x="290" y="739" as="targetPoint" />
          </mxGeometry>
        </mxCell>
        <mxCell id="VQB_SgRrG4Z1jtRtXzJK-83" value="&lt;div&gt;Date/Time&lt;/div&gt;" style="ellipse;whiteSpace=wrap;html=1;align=center;" parent="1" vertex="1">
          <mxGeometry x="-550" y="10" width="100" height="40" as="geometry" />
        </mxCell>
        <mxCell id="VQB_SgRrG4Z1jtRtXzJK-99" value="Favorite foods" style="ellipse;whiteSpace=wrap;html=1;align=center;" parent="1" vertex="1">
          <mxGeometry x="-740" y="260" width="100" height="40" as="geometry" />
        </mxCell>
        <mxCell id="VQB_SgRrG4Z1jtRtXzJK-100" value="Calorie intake goals" style="ellipse;whiteSpace=wrap;html=1;align=center;" parent="1" vertex="1">
          <mxGeometry x="-840" y="200" width="100" height="40" as="geometry" />
        </mxCell>
        <mxCell id="VQB_SgRrG4Z1jtRtXzJK-101" value="" style="endArrow=none;html=1;rounded=0;dashed=1;dashPattern=1 2;exitX=0.5;exitY=1;exitDx=0;exitDy=0;entryX=0.5;entryY=0;entryDx=0;entryDy=0;" parent="1" source="VQB_SgRrG4Z1jtRtXzJK-36" target="VQB_SgRrG4Z1jtRtXzJK-100" edge="1">
          <mxGeometry relative="1" as="geometry">
            <mxPoint x="-569.96" y="250" as="sourcePoint" />
            <mxPoint x="-409.96" y="250" as="targetPoint" />
          </mxGeometry>
        </mxCell>
        <mxCell id="VQB_SgRrG4Z1jtRtXzJK-102" value="N" style="resizable=0;html=1;whiteSpace=wrap;align=right;verticalAlign=bottom;" parent="VQB_SgRrG4Z1jtRtXzJK-101" connectable="0" vertex="1">
          <mxGeometry x="1" relative="1" as="geometry" />
        </mxCell>
        <mxCell id="VQB_SgRrG4Z1jtRtXzJK-103" value="" style="endArrow=none;html=1;rounded=0;dashed=1;dashPattern=1 2;exitX=0.5;exitY=1;exitDx=0;exitDy=0;entryX=0.5;entryY=0;entryDx=0;entryDy=0;" parent="1" source="VQB_SgRrG4Z1jtRtXzJK-36" target="VQB_SgRrG4Z1jtRtXzJK-99" edge="1">
          <mxGeometry relative="1" as="geometry">
            <mxPoint x="-260" y="280" as="sourcePoint" />
            <mxPoint x="-100" y="280" as="targetPoint" />
          </mxGeometry>
        </mxCell>
        <mxCell id="VQB_SgRrG4Z1jtRtXzJK-104" value="N" style="resizable=0;html=1;whiteSpace=wrap;align=right;verticalAlign=bottom;" parent="VQB_SgRrG4Z1jtRtXzJK-103" connectable="0" vertex="1">
          <mxGeometry x="1" relative="1" as="geometry" />
        </mxCell>
        <mxCell id="VQB_SgRrG4Z1jtRtXzJK-108" value="" style="endArrow=none;html=1;rounded=0;exitX=0.5;exitY=0;exitDx=0;exitDy=0;entryX=0.5;entryY=1;entryDx=0;entryDy=0;" parent="1" source="VQB_SgRrG4Z1jtRtXzJK-41" target="VQB_SgRrG4Z1jtRtXzJK-83" edge="1">
          <mxGeometry relative="1" as="geometry">
            <mxPoint x="-440" y="330" as="sourcePoint" />
            <mxPoint x="-280" y="330" as="targetPoint" />
          </mxGeometry>
        </mxCell>
        <mxCell id="VQB_SgRrG4Z1jtRtXzJK-109" value="1" style="resizable=0;html=1;whiteSpace=wrap;align=right;verticalAlign=bottom;" parent="VQB_SgRrG4Z1jtRtXzJK-108" connectable="0" vertex="1">
          <mxGeometry x="1" relative="1" as="geometry" />
        </mxCell>
        <mxCell id="xIRENKoxoDqLBD3Ap8V8-1" value="Classification Tag" style="ellipse;whiteSpace=wrap;html=1;align=center;" parent="1" vertex="1">
          <mxGeometry x="-140" y="80" width="100" height="40" as="geometry" />
        </mxCell>
        <mxCell id="xIRENKoxoDqLBD3Ap8V8-2" value="" style="endArrow=none;html=1;rounded=0;dashed=1;dashPattern=1 2;entryX=0.5;entryY=1;entryDx=0;entryDy=0;exitX=1;exitY=0.5;exitDx=0;exitDy=0;edgeStyle=orthogonalEdgeStyle;" parent="1" source="VQB_SgRrG4Z1jtRtXzJK-4" target="xIRENKoxoDqLBD3Ap8V8-1" edge="1">
          <mxGeometry relative="1" as="geometry">
            <mxPoint x="-140" y="250" as="sourcePoint" />
            <mxPoint x="-240" y="360" as="targetPoint" />
          </mxGeometry>
        </mxCell>
        <mxCell id="xIRENKoxoDqLBD3Ap8V8-3" value="N" style="resizable=0;html=1;whiteSpace=wrap;align=right;verticalAlign=bottom;" parent="xIRENKoxoDqLBD3Ap8V8-2" connectable="0" vertex="1">
          <mxGeometry x="1" relative="1" as="geometry" />
        </mxCell>
        <mxCell id="xIRENKoxoDqLBD3Ap8V8-4" value="Meal identifier" style="ellipse;whiteSpace=wrap;html=1;align=center;fontStyle=4;" parent="1" vertex="1">
          <mxGeometry x="-140" y="250" width="100" height="40" as="geometry" />
        </mxCell>
        <mxCell id="xIRENKoxoDqLBD3Ap8V8-5" value="" style="endArrow=none;html=1;rounded=0;entryX=0.5;entryY=0;entryDx=0;entryDy=0;exitX=1;exitY=0.75;exitDx=0;exitDy=0;" parent="1" source="VQB_SgRrG4Z1jtRtXzJK-4" target="xIRENKoxoDqLBD3Ap8V8-4" edge="1">
          <mxGeometry relative="1" as="geometry">
            <mxPoint x="-400" y="360" as="sourcePoint" />
            <mxPoint x="-240" y="360" as="targetPoint" />
          </mxGeometry>
        </mxCell>
        <mxCell id="xIRENKoxoDqLBD3Ap8V8-6" value="1" style="resizable=0;html=1;whiteSpace=wrap;align=right;verticalAlign=bottom;" parent="xIRENKoxoDqLBD3Ap8V8-5" connectable="0" vertex="1">
          <mxGeometry x="1" relative="1" as="geometry" />
        </mxCell>
        <mxCell id="xIRENKoxoDqLBD3Ap8V8-7" value="This is a derived attribute, make sure it looks as such.&lt;br&gt;&amp;nbsp;each attribute is related to exactly one entity." style="text;html=1;align=center;verticalAlign=middle;resizable=0;points=[];autosize=1;strokeColor=none;fillColor=none;" parent="1" vertex="1">
          <mxGeometry x="-820" y="350" width="310" height="40" as="geometry" />
        </mxCell>
        <mxCell id="xIRENKoxoDqLBD3Ap8V8-9" value="" style="endArrow=none;html=1;rounded=0;entryX=0.5;entryY=0;entryDx=0;entryDy=0;exitX=0.5;exitY=1;exitDx=0;exitDy=0;" parent="1" source="VQB_SgRrG4Z1jtRtXzJK-12" target="xIRENKoxoDqLBD3Ap8V8-8" edge="1">
          <mxGeometry relative="1" as="geometry">
            <mxPoint x="-220" y="530" as="sourcePoint" />
            <mxPoint x="-150" y="590" as="targetPoint" />
          </mxGeometry>
        </mxCell>
        <mxCell id="xIRENKoxoDqLBD3Ap8V8-8" value="Relationships must connect entitiies, not attributes" style="text;html=1;align=center;verticalAlign=middle;resizable=0;points=[];autosize=1;strokeColor=none;fillColor=none;" parent="1" vertex="1">
          <mxGeometry x="-365" y="550" width="290" height="30" as="geometry" />
        </mxCell>
        <mxCell id="xIRENKoxoDqLBD3Ap8V8-11" value="Think about a primary key:&lt;br&gt;An attribute that acts as such." style="text;html=1;align=center;verticalAlign=middle;resizable=0;points=[];autosize=1;strokeColor=none;fillColor=none;" parent="1" vertex="1">
          <mxGeometry x="-400" y="23" width="180" height="40" as="geometry" />
        </mxCell>
        <mxCell id="xIRENKoxoDqLBD3Ap8V8-12" value="Cardinality should not be represented on attributes" style="text;html=1;align=center;verticalAlign=middle;resizable=0;points=[];autosize=1;strokeColor=none;fillColor=none;" parent="1" vertex="1">
          <mxGeometry x="-820" y="600" width="290" height="30" as="geometry" />
        </mxCell>
      </root>
    </mxGraphModel>
  </diagram>
</mxfile>
